<?xml version="1.0" standalone="no"?>
<!DOCTYPE svg PUBLIC "-//W3C//DTD SVG 20010904//EN"
 "http://www.w3.org/TR/2001/REC-SVG-20010904/DTD/svg10.dtd">
<svg version="1.0" xmlns="http://www.w3.org/2000/svg"
 width="2465.000000pt" height="2465.000000pt" viewBox="0 0 2465.000000 2465.000000"
 preserveAspectRatio="xMidYMid meet">
<metadata>
Created by potrace 1.11, written by Peter Selinger 2001-2013
</metadata>
<g transform="translate(0.000000,2465.000000) scale(0.100000,-0.100000)"
fill="#000000" stroke="none">
<path d="M12682 20253 c-27 -54 -97 -190 -154 -303 -224 -439 -278 -541 -351
-660 -22 -36 -48 -80 -58 -98 -36 -63 -55 -88 -349 -482 -173 -232 -332 -434
-385 -489 -131 -138 -286 -286 -380 -366 -26 -22 -57 -49 -69 -60 -11 -11 -50
-43 -86 -70 -36 -28 -67 -52 -70 -55 -27 -29 -432 -310 -447 -310 -3 0 -25
-13 -50 -30 -24 -16 -46 -30 -48 -30 -2 0 -43 -23 -92 -51 -380 -220 -949
-437 -1428 -544 -11 -3 -31 -7 -45 -10 -14 -4 -36 -8 -50 -11 -14 -2 -47 -9
-75 -14 -27 -6 -61 -12 -75 -15 -14 -3 -36 -7 -50 -10 -14 -3 -45 -7 -70 -10
-25 -3 -52 -7 -60 -10 -8 -2 -37 -6 -65 -10 -57 -6 -129 -15 -165 -20 -28 -4
-133 -14 -225 -20 -152 -11 -280 -15 -690 -21 -473 -6 -559 -8 -875 -19 -227
-8 -320 -12 -335 -14 -7 -1 -10 -283 -10 -834 l0 -834 -455 -1 c-250 0 -464
-1 -475 -1 -20 -1 -20 -5 -19 -873 1 -771 5 -1004 19 -1058 2 -8 7 -35 10 -60
3 -25 10 -61 15 -80 5 -19 11 -48 14 -65 6 -39 41 -163 67 -239 73 -215 187
-426 332 -616 82 -107 243 -274 332 -345 28 -22 52 -43 55 -46 21 -27 290
-192 395 -244 126 -61 316 -135 383 -150 17 -3 32 -12 33 -18 0 -7 2 -19 4
-27 1 -8 8 -53 14 -100 6 -47 13 -96 16 -110 3 -14 7 -44 10 -67 5 -41 12 -92
20 -143 3 -14 7 -43 10 -65 8 -49 53 -322 59 -350 2 -11 18 -94 35 -185 17
-91 33 -176 36 -190 3 -14 10 -45 15 -70 119 -594 321 -1291 519 -1792 193
-487 433 -892 780 -1318 47 -58 90 -110 96 -116 5 -6 46 -51 90 -100 83 -92
344 -355 430 -434 28 -25 86 -77 130 -115 44 -39 82 -72 85 -75 3 -3 52 -44
110 -91 408 -333 843 -629 1325 -903 105 -60 215 -123 245 -140 71 -41 585
-298 715 -358 428 -198 875 -378 1233 -497 257 -86 282 -92 316 -85 80 17 610
201 704 244 23 11 47 20 52 20 6 0 29 8 53 19 23 10 60 25 82 34 22 9 121 51
220 93 308 131 406 176 725 336 140 70 293 148 340 174 121 65 173 94 190 104
237 140 367 216 375 219 6 2 24 15 41 28 17 12 34 23 38 23 12 0 411 268 551
369 205 150 534 411 611 485 6 6 47 43 90 81 83 73 380 369 449 445 113 126
230 265 298 355 42 55 80 105 85 110 23 29 152 216 177 257 5 9 46 77 91 150
76 124 226 415 268 518 10 25 24 59 31 75 152 352 368 1050 486 1570 11 50 22
97 24 105 6 27 55 254 59 275 2 11 18 92 35 180 39 206 41 215 46 247 2 15 9
53 14 85 12 66 16 90 31 188 6 39 13 81 15 95 2 14 7 45 10 70 3 25 8 52 10
60 2 8 6 38 10 65 3 28 8 65 11 83 2 17 6 47 8 65 3 17 8 55 11 82 10 77 12
80 73 122 476 327 679 509 863 773 179 255 315 585 359 869 6 36 13 77 15 91
10 53 18 179 18 285 2 544 -186 1043 -549 1460 l-69 79 0 906 0 905 -25 2
c-97 6 -841 21 -1440 28 -484 5 -680 10 -775 19 -27 3 -86 8 -129 11 -43 4
-86 8 -95 10 -9 1 -43 6 -76 9 -110 13 -150 18 -155 21 -3 2 -30 6 -60 10 -30
3 -71 10 -90 15 -19 5 -53 11 -75 14 -22 3 -92 17 -155 31 -671 149 -1255 394
-1810 759 -85 56 -162 109 -170 118 -9 8 -24 20 -35 26 -37 19 -302 236 -401
327 -179 164 -336 327 -480 495 -84 99 -234 290 -274 350 -13 19 -27 37 -30
40 -6 5 -191 283 -229 345 -102 165 -194 332 -346 630 -184 360 -287 560 -290
563 -2 2 -25 -41 -53 -95z"/>
</g>
</svg>
